<?xml version="1.0" standalone="no"?>
<!DOCTYPE svg PUBLIC "-//W3C//DTD SVG 20010904//EN"
 "http://www.w3.org/TR/2001/REC-SVG-20010904/DTD/svg10.dtd">
<svg version="1.0" xmlns="http://www.w3.org/2000/svg"
 width="512.000000pt" height="490.000000pt" viewBox="0 0 512.000000 490.000000"
 preserveAspectRatio="xMidYMid meet">
<metadata>
Created by potrace 1.16, written by Peter Selinger 2001-2019
</metadata>
<g transform="translate(0.000000,490.000000) scale(0.100000,-0.100000)"
fill="#000000" stroke="none">
<path d="M2310 4880 c-647 -114 -1141 -624 -1239 -1277 -13 -88 -15 -422 -2
-456 16 -40 73 -99 116 -118 120 -55 264 19 294 151 6 25 11 107 11 183 0 332
108 590 337 808 369 351 920 397 1345 112 148 -99 304 -283 378 -446 69 -152
100 -318 100 -537 0 -143 13 -184 73 -237 65 -57 150 -68 232 -29 59 27 77 46
104 106 39 86 24 417 -29 627 -134 531 -557 954 -1090 1088 -192 49 -439 59
-630 25z"/>
<path d="M483 2956 c-126 -59 -158 -241 -59 -339 18 -17 157 -104 310 -192
153 -88 282 -167 286 -175 12 -22 -6 -106 -32 -149 -36 -60 -191 -242 -270
-317 -124 -118 -244 -196 -406 -265 -227 -97 -312 -191 -312 -346 0 -181 141
-305 470 -411 69 -22 132 -44 141 -47 10 -4 22 -27 29 -52 25 -103 115 -204
218 -245 47 -19 76 -23 167 -23 97 0 123 4 220 34 104 33 113 34 175 23 83
-14 205 -75 385 -192 176 -115 336 -193 462 -227 90 -25 114 -27 293 -27 179
0 203 2 293 27 126 34 286 112 462 227 180 117 302 178 385 192 62 11 71 10
175 -23 97 -30 123 -34 220 -34 91 0 120 4 167 23 103 41 193 142 218 245 7
25 19 48 29 52 9 3 72 25 141 47 329 106 470 230 470 411 0 155 -85 249 -312
346 -160 68 -286 150 -407 265 -89 86 -253 283 -279 337 -29 60 -32 127 -6
146 10 7 138 82 283 166 146 84 280 167 298 185 68 67 76 186 19 273 -50 75
-168 109 -253 74 -79 -33 -667 -380 -698 -412 -69 -71 -113 -263 -95 -407 20
-162 72 -265 222 -446 184 -221 400 -410 561 -491 31 -16 57 -31 57 -33 0 -3
-37 -16 -82 -31 -108 -35 -170 -68 -225 -118 -56 -52 -81 -87 -108 -152 l-21
-52 -94 30 c-85 27 -108 30 -225 30 -113 1 -142 -3 -220 -26 -122 -37 -259
-106 -450 -228 -253 -162 -350 -199 -520 -199 -180 0 -275 36 -530 199 -191
122 -328 191 -450 228 -78 23 -107 27 -220 26 -117 0 -140 -3 -225 -30 l-94
-30 -21 52 c-54 133 -150 211 -333 270 -45 15 -82 28 -82 30 0 2 31 20 68 40
167 87 407 304 589 532 133 166 186 300 185 473 0 145 -36 271 -96 332 -32 33
-619 379 -699 413 -52 22 -114 19 -174 -9z"/>
</g>
</svg>
