<?xml version="1.0" standalone="no"?>
<!DOCTYPE svg PUBLIC "-//W3C//DTD SVG 20010904//EN"
 "http://www.w3.org/TR/2001/REC-SVG-20010904/DTD/svg10.dtd">
<svg version="1.0" xmlns="http://www.w3.org/2000/svg"
 width="512.000000pt" height="414.000000pt" viewBox="0 0 512.000000 414.000000"
 preserveAspectRatio="xMidYMid meet">
<metadata>
Created by potrace 1.16, written by Peter Selinger 2001-2019
</metadata>
<g transform="translate(0.000000,414.000000) scale(0.100000,-0.100000)"
fill="#000000" stroke="none">
<path d="M3235 4129 c-479 -69 -844 -394 -961 -857 -13 -52 -24 -107 -24 -123
0 -16 -3 -29 -8 -29 -4 0 -376 187 -827 415 -451 229 -837 420 -859 426 -79
21 -183 -28 -220 -105 -19 -41 -21 -125 -2 -169 7 -18 29 -46 48 -63 19 -17
482 -257 1028 -534 908 -459 997 -503 1044 -504 65 -1 123 24 159 71 42 56 51
102 36 198 -7 47 -10 126 -7 186 10 190 74 334 213 475 91 92 181 149 300 191
73 25 92 27 225 27 129 0 154 -3 222 -26 106 -35 190 -85 286 -168 143 -123
141 -123 540 21 169 61 326 122 349 135 52 30 82 78 90 143 15 129 -94 236
-222 217 -22 -3 -150 -46 -284 -95 l-244 -90 -41 33 c-217 175 -557 266 -841
225z"/>
<path d="M4851 3609 c-12 -5 -167 -109 -344 -232 -236 -164 -327 -232 -346
-261 -25 -38 -26 -45 -32 -250 -4 -116 -12 -249 -18 -296 -81 -576 -340 -1095
-742 -1485 -323 -314 -679 -511 -1114 -615 -187 -45 -313 -61 -540 -67 -237
-6 -405 9 -604 53 -145 32 -366 103 -355 114 5 4 182 56 394 114 547 152 540
150 577 188 60 62 78 143 48 216 -31 74 -102 122 -179 122 -38 0 -1382 -367
-1471 -402 -110 -43 -159 -173 -105 -278 25 -48 53 -70 207 -158 586 -334
1293 -446 1999 -317 253 47 482 123 721 241 584 288 1060 799 1336 1434 138
317 214 639 239 1007 l12 172 268 187 c304 211 318 226 318 328 0 60 -22 116
-57 148 -47 42 -152 61 -212 37z"/>
<path d="M295 2806 c-95 -42 -140 -165 -96 -262 35 -77 69 -95 319 -164 279
-78 318 -82 388 -41 38 22 58 42 73 74 42 87 20 197 -51 251 -23 17 -106 45
-271 90 -244 68 -306 77 -362 52z"/>
<path d="M765 1871 c-128 -7 -174 -25 -218 -87 -65 -92 -36 -224 61 -282 l47
-27 179 3 c295 6 368 14 415 46 96 67 109 233 25 307 -50 44 -77 49 -241 47
-87 -1 -207 -4 -268 -7z"/>
</g>
</svg>
