<?xml version="1.0" standalone="no"?>
<!DOCTYPE svg PUBLIC "-//W3C//DTD SVG 20010904//EN"
 "http://www.w3.org/TR/2001/REC-SVG-20010904/DTD/svg10.dtd">
<svg version="1.0" xmlns="http://www.w3.org/2000/svg"
 width="512.000000pt" height="370.000000pt" viewBox="0 0 512.000000 370.000000"
 preserveAspectRatio="xMidYMid meet">
<metadata>
Created by potrace 1.16, written by Peter Selinger 2001-2019
</metadata>
<g transform="translate(0.000000,370.000000) scale(0.100000,-0.100000)"
fill="#000000" stroke="none">
<path d="M747 3690 c-307 -53 -572 -265 -686 -550 -63 -158 -61 -124 -61
-1290 0 -1166 -2 -1132 61 -1290 101 -252 310 -441 584 -527 l90 -28 1825 0
1825 0 90 28 c274 86 483 275 584 527 63 158 61 124 61 1290 0 1166 2 1132
-61 1290 -101 252 -310 441 -584 527 l-90 28 -1795 1 c-987 1 -1817 -2 -1843
-6z m3618 -382 c192 -66 341 -230 374 -412 15 -82 15 -2010 0 -2092 -33 -184
-188 -352 -379 -412 -51 -16 -183 -17 -1800 -17 -1617 0 -1749 1 -1800 17
-191 60 -346 228 -379 412 -15 82 -15 2010 0 2092 38 213 231 396 449 424 30
4 827 7 1770 6 1591 -1 1719 -2 1765 -18z"/>
<path d="M2005 2914 c-44 -22 -76 -55 -91 -91 -12 -27 -14 -199 -14 -975 0
-1056 -5 -979 73 -1042 51 -40 134 -48 194 -17 67 33 1365 891 1401 925 83 77
83 195 0 272 -36 34 -1340 896 -1400 926 -45 22 -123 23 -163 2z m677 -790
c222 -146 403 -269 403 -274 0 -8 -799 -540 -810 -540 -3 0 -5 243 -5 540 0
297 2 540 5 540 2 0 185 -120 407 -266z"/>
</g>
</svg>
